<?xml version="1.0" encoding="utf-8"?>
<!-- Generator: Adobe Illustrator 15.1.0, SVG Export Plug-In . SVG Version: 6.00 Build 0)  -->
<!DOCTYPE svg PUBLIC "-//W3C//DTD SVG 1.1//EN" "http://www.w3.org/Graphics/SVG/1.1/DTD/svg11.dtd">
<svg version="1.1" id="Слой_1" xmlns="http://www.w3.org/2000/svg" xmlns:xlink="http://www.w3.org/1999/xlink" x="0px" y="0px"
	 width="18px" height="15px" viewBox="-4 -2.5 18 15" enable-background="new -4 -2.5 18 15" xml:space="preserve">
<path fill="#2DB0FF" d="M10.479-2.5H-0.478C-1.594-2.5-2.5-1.594-2.5-0.478v10.956c0,1.116,0.906,2.021,2.022,2.021h5.403
	l0.009-5.358H3.542c-0.181,0-0.328-0.147-0.33-0.329L3.208,5.086C3.206,4.902,3.354,4.755,3.536,4.755h1.389V3.086
	c0-1.938,1.182-2.992,2.911-2.992h1.418c0.182,0,0.328,0.147,0.328,0.328v1.457c0,0.182-0.146,0.329-0.328,0.329h-0.87
	c-0.94,0-1.122,0.447-1.122,1.103v1.444h2.065c0.196,0,0.351,0.173,0.328,0.368L9.45,6.849C9.432,7.016,9.289,7.142,9.123,7.142
	h-1.85L7.264,12.5h3.215c1.116,0,2.021-0.905,2.021-2.021V-0.478C12.5-1.594,11.595-2.5,10.479-2.5z"/>
</svg>
