<?xml version="1.0" encoding="utf-8"?>
<!-- Generator: Adobe Illustrator 15.1.0, SVG Export Plug-In . SVG Version: 6.00 Build 0)  -->
<!DOCTYPE svg PUBLIC "-//W3C//DTD SVG 1.1//EN" "http://www.w3.org/Graphics/SVG/1.1/DTD/svg11.dtd">
<svg version="1.1" id="Слой_1" xmlns="http://www.w3.org/2000/svg" xmlns:xlink="http://www.w3.org/1999/xlink" x="0px" y="0px"
	 width="18px" height="18px" viewBox="0 0 18 18" enable-background="new 0 0 18 18" xml:space="preserve">
<g>
	<g>
		<defs>
			<rect id="SVGID_1_" width="18" height="18"/>
		</defs>
		<clipPath id="SVGID_2_">
			<use xlink:href="#SVGID_1_"  overflow="visible"/>
		</clipPath>
		<path clip-path="url(#SVGID_2_)" d="M15.829,12.432c2.843-2.84,2.843-7.461,0-10.302c-2.841-2.839-7.465-2.839-10.306,0
			c-2.41,2.41-2.775,5.993-1.096,8.791c0,0,0.12,0.202-0.043,0.365l-3.718,3.717c-0.74,0.74-0.916,1.774-0.26,2.431l0.113,0.113
			c0.656,0.655,1.691,0.479,2.431-0.261l3.71-3.709c0.171-0.17,0.374-0.05,0.374-0.05C9.834,15.206,13.419,14.842,15.829,12.432
			L15.829,12.432z M6.869,11.087c-2.1-2.099-2.1-5.513,0-7.612c2.1-2.099,5.516-2.099,7.616,0c2.1,2.099,2.1,5.513,0,7.612
			S8.968,13.186,6.869,11.087L6.869,11.087z M6.869,11.087"/>
	</g>
	<path d="M7.333,6.849c-0.098,0-0.197-0.019-0.292-0.06c-0.383-0.162-0.562-0.604-0.4-0.985C7.659,3.4,10.443,2.272,12.847,3.29
		c0.383,0.162,0.562,0.603,0.4,0.985c-0.162,0.382-0.604,0.562-0.986,0.399C10.621,3.98,8.721,4.75,8.026,6.39
		C7.905,6.676,7.627,6.849,7.333,6.849L7.333,6.849z M7.333,6.849"/>
</g>
</svg>
