<?xml version="1.0" encoding="utf-8"?>
<!-- Generator: Adobe Illustrator 15.1.0, SVG Export Plug-In  -->
<!DOCTYPE svg PUBLIC "-//W3C//DTD SVG 1.1//EN" "http://www.w3.org/Graphics/SVG/1.1/DTD/svg11.dtd" [
	<!ENTITY ns_flows "http://ns.adobe.com/Flows/1.0/">
]>
<svg version="1.1"
	 xmlns="http://www.w3.org/2000/svg" xmlns:xlink="http://www.w3.org/1999/xlink" xmlns:a="http://ns.adobe.com/AdobeSVGViewerExtensions/3.0/"
	 x="0px" y="0px" width="90px" height="80px" viewBox="0 0 90 80" enable-background="new 0 0 90 80" xml:space="preserve">
<defs>
</defs>
<path id="path4691_1_" inkscape:connector-curvature="0" d="M41.729,0.008c-1.6-0.007-10.235,7.365-15.869,15.298h46.993
	C67.484,7.663,58.16,0.023,56.244,0.008C53.646-0.013,44.686,0.015,41.729,0.008z M10.477,8.482
	c-1.189,0.096-2.18,2.659-2.121,3.825s1.158,3.593,2.351,3.575H23.1c1.264,0.073,2.454-2.462,2.454-3.7
	c0-1.238-1.19-3.773-2.454-3.7H10.707H10.477z M15.945,19.106C5.81,19.602,0.218,18.99,0,29.28v34.747
	C1.362,75.232,6.313,74.091,15.945,74.2h15.92C36.751,77.846,42.834,80,49.37,80c6.535,0,12.614-2.154,17.504-5.8h7.206
	C84.21,73.695,89.782,74.312,90,64.026V29.28c-1.359-11.199-9.972-10.058-19.6-10.174H15.945z M49.318,24.28
	c13.901,0,25.426,11.124,25.426,25.049c0,13.922-11.524,25.071-25.426,25.071c-13.901,0-25.426-11.149-25.426-25.071
	C23.893,35.404,35.417,24.28,49.318,24.28z M16.636,28.68c1.518-0.021,2.934,1.364,2.913,2.85v31.697
	c0,1.461-1.369,2.825-2.862,2.825s-2.836-1.364-2.836-2.825V31.53C13.829,30.069,15.143,28.699,16.636,28.68z M49.19,34.879
	c-7.903,0-14.31,6.267-14.31,14c0,7.73,6.407,13.998,14.31,13.998c7.903,0,14.311-6.268,14.311-13.998
	C63.501,41.146,57.094,34.879,49.19,34.879z"/>
</svg>
