<?xml version="1.0" encoding="utf-8"?>
<!-- Generator: Adobe Illustrator 15.1.0, SVG Export Plug-In . SVG Version: 6.00 Build 0)  -->
<!DOCTYPE svg PUBLIC "-//W3C//DTD SVG 1.1//EN" "http://www.w3.org/Graphics/SVG/1.1/DTD/svg11.dtd">
<svg version="1.1" id="Слой_1" xmlns="http://www.w3.org/2000/svg" xmlns:xlink="http://www.w3.org/1999/xlink" x="0px" y="0px"
	 width="18px" height="15px" viewBox="-3 -2.5 18 15" enable-background="new -3 -2.5 18 15" xml:space="preserve">
<path fill="#2DB0FF" d="M15-0.726c-0.659,0.3-1.374,0.509-2.121,0.599c0.765-0.47,1.345-1.212,1.626-2.097
	C13.79-1.79,13-1.474,12.155-1.306C11.484-2.038,10.523-2.5,9.463-2.5c-2.037,0-3.69,1.696-3.69,3.786
	c0,0.299,0.034,0.585,0.094,0.862C2.794,1.991,0.076,0.487-1.748-1.809C-2.065-1.25-2.249-0.597-2.249,0.098
	c0,1.313,0.654,2.474,1.643,3.149c-0.605-0.015-1.171-0.189-1.67-0.472V2.82c0,1.836,1.273,3.369,2.961,3.718
	C0.378,6.623,0.048,6.667-0.285,6.667c-0.237,0-0.466-0.023-0.697-0.067c0.471,1.506,1.831,2.599,3.448,2.631
	c-1.265,1.016-2.857,1.617-4.587,1.617c-0.297,0-0.588-0.015-0.879-0.05c1.636,1.077,3.576,1.702,5.662,1.702
	c6.791,0,10.504-5.771,10.504-10.774l-0.012-0.491C13.879,0.701,14.505,0.035,15-0.726L15-0.726z"/>
</svg>
